<svg width="26" height="26" viewBox="0 0 26 26" fill="none" xmlns="http://www.w3.org/2000/svg">
<mask id="mask0_350_381" style="mask-type:alpha" maskUnits="userSpaceOnUse" x="0" y="0" width="26" height="26">
<rect width="26" height="26" fill="#D9D9D9" style="fill:#D9D9D9;fill:color(display-p3 0.8510 0.8510 0.8510);fill-opacity:1;"/>
</mask>
<g mask="url(#mask0_350_381)">
<path d="M5.95834 21.9375V5.75005C5.95834 5.20279 6.14793 4.73957 6.52709 4.36041C6.90626 3.98124 7.36948 3.79166 7.91674 3.79166H18.0833C18.6305 3.79166 19.0938 3.98124 19.4729 4.36041C19.8521 4.73957 20.0417 5.20279 20.0417 5.75005V21.9375L13 18.9166L5.95834 21.9375ZM7.58334 19.4458L13 17.1167L18.4167 19.4458V5.75005C18.4167 5.66664 18.3819 5.59026 18.3124 5.52093C18.2431 5.45141 18.1667 5.41666 18.0833 5.41666H7.91674C7.83332 5.41666 7.75695 5.45141 7.68761 5.52093C7.6181 5.59026 7.58334 5.66664 7.58334 5.75005V19.4458Z" fill="#373C38" style="fill:#373C38;fill:color(display-p3 0.2175 0.2355 0.2200);fill-opacity:1;"/>
</g>
</svg>
